HIERARCHY
ROOT Hips
{
  OFFSET 5.84602e-005 68.8428 3.50346
  CHANNELS 6 Xposition Yposition Zposition Zrotation Xrotation Yrotation
  JOINT Spine
  {
    OFFSET 0 8.597 -4.6522
    CHANNELS 3 Zrotation Xrotation Yrotation
    JOINT Spine1
    {
      OFFSET 0 7.8454 0.4098
      CHANNELS 3 Zrotation Xrotation Yrotation
      JOINT Spine2
      {
        OFFSET 0 9.7078 -2.1609
        CHANNELS 3 Zrotation Xrotation Yrotation
        JOINT Neck
        {
          OFFSET 0 21.8761 -0.4549
          CHANNELS 3 Zrotation Xrotation Yrotation
          JOINT Head
          {
            OFFSET 0 12.3537 3.3602
            CHANNELS 3 Zrotation Xrotation Yrotation
            End Site
            {
              OFFSET 0.0001 18.9506 0.5657
            }
          }
        }
        JOINT LeftShoulder
        {
          OFFSET 2.2086 21.1115 7.2329
          CHANNELS 3 Zrotation Xrotation Yrotation
          JOINT LeftArm
          {
            OFFSET 13.1193 3.0282 -4.8998
            CHANNELS 3 Zrotation Xrotation Yrotation
            JOINT LeftForeArm
            {
              OFFSET 27.4081 -0.0973053 -0.2375
              CHANNELS 3 Zrotation Xrotation Yrotation
              JOINT LeftHand
              {
                OFFSET 22.8641 0.0662994 -0.1369
                CHANNELS 3 Zrotation Xrotation Yrotation
                JOINT LeftHandIndex1
                {
                  OFFSET 8.8614 0.775009 2.4612
                  CHANNELS 3 Zrotation Xrotation Yrotation
                  JOINT LeftHandIndex2
                  {
                    OFFSET 3.3146 -0.808304 0.5841
                    CHANNELS 3 Zrotation Xrotation Yrotation
                    JOINT LeftHandIndex3
                    {
                      OFFSET 2.2628 -0.552002 0.3989
                      CHANNELS 3 Zrotation Xrotation Yrotation
                      End Site
                      {
                        OFFSET 1.6102 -0.4807 0.2612
                      }
                    }
                  }
                }
                JOINT LeftHandMiddle1
                {
                  OFFSET 8.9937 0.895004 0.2143
                  CHANNELS 3 Zrotation Xrotation Yrotation
                  JOINT LeftHandMiddle2
                  {
                    OFFSET 4.0984 0.0113983 -0.0242
                    CHANNELS 3 Zrotation Xrotation Yrotation
                    JOINT LeftHandMiddle3
                    {
                      OFFSET 2.2716 0.00689697 -0.0138001
                      CHANNELS 3 Zrotation Xrotation Yrotation
                      End Site
                      {
                        OFFSET 2.0404 -0.1441 0.0027
                      }
                    }
                  }
                }
                JOINT LeftHandRing1
                {
                  OFFSET 8.5234 0.597198 -2.0164
                  CHANNELS 3 Zrotation Xrotation Yrotation
                  JOINT LeftHandRing2
                  {
                    OFFSET 3.7188 -0.188293 -0.2328
                    CHANNELS 3 Zrotation Xrotation Yrotation
                    JOINT LeftHandRing3
                    {
                      OFFSET 2.1191 -0.106598 -0.1332
                      CHANNELS 3 Zrotation Xrotation Yrotation
                      End Site
                      {
                        OFFSET 1.8737 -0.2304 -0.0886
                      }
                    }
                  }
                }
                JOINT LeftHandPinky1
                {
                  OFFSET 7.9094 -0.601089 -3.4825
                  CHANNELS 3 Zrotation Xrotation Yrotation
                  JOINT LeftHandPinky2
                  {
                    OFFSET 2.2874 -0.477005 -0.6314
                    CHANNELS 3 Zrotation Xrotation Yrotation
                    JOINT LeftHandPinky3
                    {
                      OFFSET 1.6774 -0.349396 -0.4633
                      CHANNELS 3 Zrotation Xrotation Yrotation
                      End Site
                      {
                        OFFSET 1.4888 -0.4091 -0.3416
                      }
                    }
                  }
                }
                JOINT LeftHandThumb1
                {
                  OFFSET 1.833 -1.3875 1.3896
                  CHANNELS 3 Zrotation Xrotation Yrotation
                  JOINT LeftHandThumb2
                  {
                    OFFSET 3.4129 -1.121 2.5732
                    CHANNELS 3 Zrotation Xrotation Yrotation
                    JOINT LeftHandThumb3
                    {
                      OFFSET 2.2474 -0.804199 1.6192
                      CHANNELS 3 Zrotation Xrotation Yrotation
                      End Site
                      {
                        OFFSET 1.6527 -0.5689 1.1317
                      }
                    }
                  }
                }
              }
            }
          }
        }
        JOINT RightShoulder
        {
          OFFSET -2.2086 21.1115 7.2329
          CHANNELS 3 Zrotation Xrotation Yrotation
          JOINT RightArm
          {
            OFFSET -13.1216 3.0287 -4.9007
            CHANNELS 3 Zrotation Xrotation Yrotation
            JOINT RightForeArm
            {
              OFFSET -27.4081 -0.0973053 -0.2375
              CHANNELS 3 Zrotation Xrotation Yrotation
              JOINT RightHand
              {
                OFFSET -22.8641 0.0664063 -0.1369
                CHANNELS 3 Zrotation Xrotation Yrotation
                JOINT RightHandIndex1
                {
                  OFFSET -8.8614 0.774994 2.4612
                  CHANNELS 3 Zrotation Xrotation Yrotation
                  JOINT RightHandIndex2
                  {
                    OFFSET -3.3146 -0.808304 0.5841
                    CHANNELS 3 Zrotation Xrotation Yrotation
                    JOINT RightHandIndex3
                    {
                      OFFSET -2.2628 -0.552002 0.3989
                      CHANNELS 3 Zrotation Xrotation Yrotation
                      End Site
                      {
                        OFFSET -1.6102 -0.4807 0.2612
                      }
                    }
                  }
                }
                JOINT RightHandMiddle1
                {
                  OFFSET -8.9937 0.894989 0.2143
                  CHANNELS 3 Zrotation Xrotation Yrotation
                  JOINT RightHandMiddle2
                  {
                    OFFSET -4.0984 0.0113983 -0.0242
                    CHANNELS 3 Zrotation Xrotation Yrotation
                    JOINT RightHandMiddle3
                    {
                      OFFSET -2.2716 0.00691223 -0.0138001
                      CHANNELS 3 Zrotation Xrotation Yrotation
                      End Site
                      {
                        OFFSET -2.0404 -0.1441 0.0027
                      }
                    }
                  }
                }
                JOINT RightHandRing1
                {
                  OFFSET -8.5234 0.597198 -2.0164
                  CHANNELS 3 Zrotation Xrotation Yrotation
                  JOINT RightHandRing2
                  {
                    OFFSET -3.7188 -0.188309 -0.2328
                    CHANNELS 3 Zrotation Xrotation Yrotation
                    JOINT RightHandRing3
                    {
                      OFFSET -2.1191 -0.106598 -0.1332
                      CHANNELS 3 Zrotation Xrotation Yrotation
                      End Site
                      {
                        OFFSET -1.8737 -0.2304 -0.0886
                      }
                    }
                  }
                }
                JOINT RightHandPinky1
                {
                  OFFSET -7.9094 -0.601105 -3.4825
                  CHANNELS 3 Zrotation Xrotation Yrotation
                  JOINT RightHandPinky2
                  {
                    OFFSET -2.2874 -0.477005 -0.6314
                    CHANNELS 3 Zrotation Xrotation Yrotation
                    JOINT RightHandPinky3
                    {
                      OFFSET -1.6774 -0.349396 -0.4633
                      CHANNELS 3 Zrotation Xrotation Yrotation
                      End Site
                      {
                        OFFSET -1.4888 -0.4091 -0.3416
                      }
                    }
                  }
                }
                JOINT RightHandThumb1
                {
                  OFFSET -1.833 -1.38751 1.3896
                  CHANNELS 3 Zrotation Xrotation Yrotation
                  JOINT RightHandThumb2
                  {
                    OFFSET -3.41299 -1.12099 2.5732
                    CHANNELS 3 Zrotation Xrotation Yrotation
                    JOINT RightHandThumb3
                    {
                      OFFSET -2.24741 -0.804108 1.6192
                      CHANNELS 3 Zrotation Xrotation Yrotation
                      End Site
                      {
                        OFFSET -1.6527 -0.5689 1.1317
                      }
                    }
                  }
                }
              }
            }
          }
        }
      }
    }
  }
  JOINT RightUpLeg
  {
    OFFSET -9.1966 3.8861 -0.7581
    CHANNELS 3 Zrotation Xrotation Yrotation
    JOINT RightLeg
    {
      OFFSET -0.7359 -41.0265 0
      CHANNELS 3 Zrotation Xrotation Yrotation
      JOINT RightFoot
      {
        OFFSET 0 -40.2855 0
        CHANNELS 3 Zrotation Xrotation Yrotation
        JOINT RightToeBase
        {
          OFFSET 0 -5.6122 11.7359
          CHANNELS 3 Zrotation Xrotation Yrotation
          End Site
          {
            OFFSET 0 0 7.8731
          }
        }
      }
    }
  }
  JOINT LeftUpLeg
  {
    OFFSET 9.1965 3.8864 -0.7581
    CHANNELS 3 Zrotation Xrotation Yrotation
    JOINT LeftLeg
    {
      OFFSET 0.7359 -41.0268 0
      CHANNELS 3 Zrotation Xrotation Yrotation
      JOINT LeftFoot
      {
        OFFSET 0 -40.2855 0
        CHANNELS 3 Zrotation Xrotation Yrotation
        JOINT LeftToeBase
        {
          OFFSET 0 -5.6122 11.7359
          CHANNELS 3 Zrotation Xrotation Yrotation
          End Site
          {
            OFFSET 0 0 7.8731
          }
        }
      }
    }
  }
}
MOTION
Frames:	4
Frame Time:	0.0333333
10.9729 23.6051 50.5942 -0.0133532 0.011028 -169.105 -0.598011 3.23022 0.0406856 -1.2012 6.45983 0.115522 -1.2012 6.45983 0.115528 17.4173 9.72399 4.09063 8.40909 -36.0425 4.94019 -2.34573 -65.7195 37.5061 -63.3146 25.2802 26.5437 56.1875 -12.185 -3.43064 -11.3119 -29.2973 -3.63886 1.59028e-015 -3.18055e-015 -8.74653e-015 3.18055e-015 -6.36111e-015 -1.66979e-014 1.59028e-015 3.18055e-015 -7.15625e-015 1.59028e-015 -3.18055e-015 -8.74653e-015 -0.0146194 -8.30231e-005 3.61775e-006 -1.59028e-015 -1.27222e-014 -0 1.59028e-015 -3.18055e-015 -8.74653e-015 -0.0188582 -0.00118374 5.09689e-005 -3.18055e-015 3.18055e-015 -3.97569e-015 1.59028e-015 -3.18055e-015 -8.74653e-015 -0.0122414 -0.00323951 0.00067559 3.8766e-007 -1.66101e-006 7.13539e-007 1.59028e-015 -3.18055e-015 -8.74653e-015 3.18055e-015 -6.36111e-015 -1.66979e-014 1.59028e-015 3.18055e-015 -7.15625e-015 6.72963 1.28255 19.4091 64.8417 0.165049 30.0385 3.08517 0.11649 48.8634 6.88942 29.9607 -12.1739 -6.36111e-015 5.36719e-015 1.19271e-015 3.66644e-006 -9.27771e-007 -9.59362e-007 1.31278e-006 -2.82896e-006 6.09513e-007 -6.36111e-015 5.36719e-015 1.19271e-015 0.0149935 -9.45322e-005 2.73698e-006 1.31258e-006 -2.82888e-006 6.09882e-007 -6.36111e-015 5.36719e-015 1.19271e-015 0.0189768 -0.00119392 -7.19215e-005 1.31254e-006 -2.82885e-006 6.09968e-007 -6.36111e-015 5.36719e-015 1.19271e-015 0.0122743 -0.0032527 -0.000679784 1.31265e-006 -2.82885e-006 6.09787e-007 -6.36111e-015 5.36719e-015 1.19271e-015 3.66644e-006 -9.27771e-007 -9.59362e-007 1.31278e-006 -2.82896e-006 6.09513e-007 0.823878 -19.3705 -6.93786 -167.371 60.2938 162.053 -5.43035 55.3021 -8.03633 -1.59028e-015 6.36111e-015 6.36111e-015 7.01661 -21.4792 3.35115 165.232 65.8253 -161.281 16.0301 53.9678 -6.41573 3.28133e-007 4.35425e-007 2.34937e-007 
11.3853 23.4529 50.7058 -0.0133532 0.011028 -169.105 -0.45913 3.24419 0.0618891 -0.924004 6.48781 0.150247 -0.924004 6.48781 0.15025 18.0323 9.74278 3.30667 8.59968 -36.0136 5.05068 -2.89041 -65.8926 37.5623 -63.2401 25.3142 26.5979 55.2071 -12.2504 -2.42022 -11.9017 -29.481 -3.52402 3.00017e-007 2.14844e-006 -1.94389e-007 1.59028e-015 3.18055e-015 1.19271e-014 -3.97252e-031 3.18055e-015 7.15625e-015 3.00017e-007 2.14844e-006 -1.94389e-007 -0.0145254 -8.79693e-005 -1.66679e-006 -1.59028e-015 -3.18055e-015 3.18055e-015 3.00017e-007 2.14844e-006 -1.94389e-007 -0.0187978 -0.00117608 6.01164e-005 -6.36111e-015 -6.36111e-015 -4.77083e-015 3.00017e-007 2.14844e-006 -1.94389e-007 -0.0122199 -0.00322787 0.000676029 3.18055e-015 0 7.95139e-015 3.00017e-007 2.14844e-006 -1.94389e-007 1.59028e-015 3.18055e-015 1.19271e-014 -3.97252e-031 3.18055e-015 7.15625e-015 6.9447 3.75059 19.0796 65.3105 0.524103 29.7943 3.29029 0.363524 49.7273 7.87319 33.4391 -14.1349 1.17594e-006 9.45177e-007 -7.83419e-007 5.41816e-006 4.83661e-007 -2.02908e-006 1.30239e-006 -2.82446e-006 7.12883e-007 1.17594e-006 9.45177e-007 -7.83419e-007 0.0149957 -9.10405e-005 8.67145e-006 1.30219e-006 -2.82436e-006 7.13252e-007 1.17594e-006 9.45177e-007 -7.83419e-007 0.018979 -0.0011926 -5.47021e-005 1.30215e-006 -2.82432e-006 7.13338e-007 1.17594e-006 9.45177e-007 -7.83419e-007 0.0122745 -0.00325144 -0.00067821 1.35364e-006 -4.21899e-006 -2.3951e-006 1.17594e-006 9.45177e-007 -7.83419e-007 5.41816e-006 4.83661e-007 -2.02908e-006 1.30239e-006 -2.82446e-006 7.12883e-007 1.21072 -19.8008 -7.22692 -167.516 59.8943 162.153 -4.88495 55.3641 -8.89996 -2.57114e-007 -3.51232e-007 -2.61801e-007 7.39009 -21.9005 3.12238 165.235 65.8215 -161.278 16.5856 53.9408 -7.32457 -5.6582e-007 -4.29875e-007 -1.0502e-006 
11.7977 23.3006 50.8174 -0.0133532 0.011028 -169.105 -0.320288 3.25819 0.0831585 -0.646895 6.5159 0.185049 -0.646893 6.5159 0.185045 18.6472 9.75313 2.52278 8.79014 -35.9844 5.16101 -3.43835 -66.0661 37.6148 -63.1657 25.3483 26.652 54.2277 -12.3327 -1.41102 -12.4922 -29.6656 -3.41117 -1.59028e-015 6.36111e-015 4.77083e-015 -0 0 2.38542e-015 -3.18055e-015 0 4.77083e-015 -1.59028e-015 6.36111e-015 4.77083e-015 -0.0145078 -8.47292e-005 -9.06095e-006 2.88633e-007 2.07647e-006 -2.41488e-008 -1.59028e-015 6.36111e-015 4.77083e-015 -0.0187036 -0.00117352 5.84499e-005 1.59028e-015 0 -1.59028e-015 -1.59028e-015 6.36111e-015 4.77083e-015 -0.0121287 -0.00320728 0.000668386 1.59028e-015 0 -1.27222e-014 -1.59028e-015 6.36111e-015 4.77083e-015 -0 0 2.38542e-015 -3.18055e-015 0 4.77083e-015 7.17357 6.20568 18.7414 65.7807 0.881092 29.5472 3.49165 0.61365 50.5901 9.34209 36.7756 -16.3803 3.18055e-015 -6.16232e-015 6.95746e-016 1.43038e-030 -1.21259e-014 6.75868e-015 1.27222e-014 -8.15017e-015 2.98177e-016 3.18055e-015 -6.16232e-015 6.95746e-016 0.0149971 -9.75253e-005 -7.98942e-006 3.18055e-015 2.38542e-015 -5.96354e-016 3.18055e-015 -6.16232e-015 6.95746e-016 0.0190152 -0.00118798 -5.93945e-005 -3.18055e-015 6.16232e-015 -3.57812e-015 3.18055e-015 -6.16232e-015 6.95746e-016 0.0122696 -0.00324581 -0.00067212 -4.82771e-032 5.56597e-015 4.96962e-016 3.18055e-015 -6.16232e-015 6.95746e-016 1.43038e-030 -1.21259e-014 6.75868e-015 1.27222e-014 -8.15017e-015 2.98177e-016 1.59676 -20.1858 -7.51491 -167.632 59.5399 162.228 -4.33667 55.4215 -9.76642 1.29814e-007 1.65124e-006 1.60092e-006 7.76276 -22.3243 2.89588 165.239 65.8165 -161.275 17.1399 53.9087 -8.2322 1.18773e-007 -2.00362e-008 4.09181e-007 
12.2101 23.1481 50.9291 -0.0133532 0.011028 -169.105 -0.181485 3.27218 0.104486 -0.369867 6.54404 0.219914 -0.369866 6.54404 0.219912 19.2623 9.75565 1.73891 8.98043 -35.955 5.27116 -3.98955 -66.2396 37.6635 -63.0912 25.3824 26.7061 53.2502 -12.4318 -0.403384 -13.0832 -29.8513 -3.30031 -1.15878e-006 4.54813e-006 -4.37801e-007 -1.59028e-015 -3.18055e-015 7.95139e-015 -1.31745e-006 5.42373e-007 8.65845e-007 -1.15878e-006 4.54813e-006 -4.37801e-007 -0.0146475 -7.70708e-005 -7.40556e-007 -1.3174e-006 5.42262e-007 8.65915e-007 -1.15878e-006 4.54813e-006 -4.37801e-007 -0.0188034 -0.00116933 5.93775e-005 -1.1995e-006 -1.4618e-006 2.31414e-006 -1.15878e-006 4.54813e-006 -4.37801e-007 -0.0122586 -0.00323856 0.000675182 -1.19859e-006 -1.46194e-006 2.31432e-006 -1.15878e-006 4.54813e-006 -4.37801e-007 -1.59028e-015 -3.18055e-015 7.95139e-015 -1.31745e-006 5.42373e-007 8.65845e-007 7.41723 8.64649 18.3931 66.2524 1.23599 29.2972 3.68914 0.866593 51.4518 11.3442 39.9514 -18.9579 1.27222e-014 4.24902e-015 -4.34841e-015 9.54166e-015 5.93869e-015 -4.32357e-015 6.36111e-015 1.54058e-015 -5.26779e-015 1.27222e-014 4.24902e-015 -4.34841e-015 0.0150066 -9.69169e-005 1.49771e-006 3.18055e-015 -2.48481e-016 2.73329e-016 1.27222e-014 4.24902e-015 -4.34841e-015 0.018997 -0.00119257 -5.82998e-005 3.2975e-033 8.44835e-016 -2.23633e-016 1.27222e-014 4.24902e-015 -4.34841e-015 0.0122767 -0.00324728 -0.000681768 3.18055e-015 3.10601e-015 2.01269e-015 1.27222e-014 4.24902e-015 -4.34841e-015 9.54166e-015 5.93869e-015 -4.32357e-015 6.36111e-015 1.54058e-015 -5.26779e-015 1.98195 -20.6638 -7.79935 -167.793 59.0972 162.341 -3.78568 55.4743 -10.6355 -2.80242e-008 -1.62817e-006 -1.62412e-006 8.13497 -22.7481 2.67184 165.241 65.8129 -161.271 17.6927 53.8714 -9.13838 -1.45731e-007 2.77506e-006 -1.4093e-006 
